<mxfile host="Electron" modified="2023-04-19T21:46:17.775Z" agent="Mozilla/5.0 (Macintosh; Intel Mac OS X 10_15_7) AppleWebKit/537.36 (KHTML, like Gecko) draw.io/21.1.2 Chrome/106.0.5249.199 Electron/21.4.3 Safari/537.36" etag="CgeTwH_yHbHC0SfyHFYG" version="21.1.2" type="device">
  <diagram name="Page-1" id="0uBk1NRh_QXTfahNpWGE">
    <mxGraphModel dx="1161" dy="670" grid="1" gridSize="10" guides="1" tooltips="1" connect="1" arrows="1" fold="1" page="1" pageScale="1" pageWidth="827" pageHeight="1169" math="0" shadow="0">
      <root>
        <mxCell id="0" />
        <mxCell id="1" parent="0" />
        <mxCell id="45r6KMX3CsADxtNxQLWL-3" value="" style="shape=or;whiteSpace=wrap;html=1;rotation=90;strokeColor=#000000;fillColor=#b46504;container=0;" parent="1" vertex="1">
          <mxGeometry x="246" y="291" width="10" height="15.63" as="geometry" />
        </mxCell>
        <mxCell id="z6cH-fZA_FC3KTX_m8WS-5" value="" style="shape=or;whiteSpace=wrap;html=1;rotation=90;strokeColor=#000000;fillColor=#b46504;container=0;" parent="1" vertex="1">
          <mxGeometry x="256" y="293" width="10" height="15.63" as="geometry" />
        </mxCell>
        <mxCell id="z6cH-fZA_FC3KTX_m8WS-6" value="" style="shape=or;whiteSpace=wrap;html=1;rotation=90;strokeColor=#000000;fillColor=#b46504;container=0;" parent="1" vertex="1">
          <mxGeometry x="265" y="291" width="10" height="15.63" as="geometry" />
        </mxCell>
        <mxCell id="45r6KMX3CsADxtNxQLWL-2" value="" style="triangle;whiteSpace=wrap;html=1;rotation=-90;strokeWidth=1;strokeColor=default;fillColor=#FFF4C3;gradientColor=#FFD966;gradientDirection=radial;rounded=1;shadow=0;container=0;" parent="1" vertex="1">
          <mxGeometry x="237.45" y="254.36" width="45.9" height="41.19" as="geometry" />
        </mxCell>
        <mxCell id="PUXAt-mW4NGOIgoKi2m9-2" value="" style="triangle;whiteSpace=wrap;html=1;rotation=-90;strokeWidth=0.5;strokeColor=#d6b656;fillColor=#fff2cc;gradientDirection=radial;rounded=1;shadow=0;container=0;" parent="1" vertex="1">
          <mxGeometry x="239.85" y="258" width="41.01" height="35.55" as="geometry" />
        </mxCell>
        <mxCell id="z6cH-fZA_FC3KTX_m8WS-8" value="&lt;h2 style=&quot;line-height: 0%;&quot;&gt;&lt;font style=&quot;font-weight: normal; font-size: 32px;&quot; data-font-src=&quot;https://fonts.googleapis.com/css?family=Dongle&quot; face=&quot;Dongle&quot;&gt;âŠ†&lt;/font&gt;&lt;br&gt;&lt;/h2&gt;" style="text;html=1;align=center;verticalAlign=middle;resizable=1;points=[];autosize=1;strokeColor=none;fillColor=none;container=0;rounded=1;movable=1;rotatable=1;deletable=1;editable=1;locked=0;connectable=1;" parent="1" vertex="1">
          <mxGeometry x="240.36" y="256.63" width="40" height="50" as="geometry" />
        </mxCell>
      </root>
    </mxGraphModel>
  </diagram>
</mxfile>
